<?xml version="1.0" encoding="UTF-8"?><svg id="uuid-3364bd8f-48f6-4405-8529-206fd56ef5f0" xmlns="http://www.w3.org/2000/svg" viewBox="0 0 512 512"><defs><style>.uuid-a395561c-aea9-4027-b57e-e9208b7a79c7{fill:#fff;}.uuid-f9f6e8f7-c3ae-4866-9241-b8aa91dbc594{fill:#cc2323;}.uuid-eff02059-9060-4e57-b26c-93a47698114d{fill:#872222;}</style></defs><path d="M445.56,256c0-25.6-5.01-50.42-14.89-73.78-9.55-22.57-23.22-42.85-40.63-60.26-17.41-17.41-37.69-31.08-60.26-40.63-23.36-9.88-48.18-14.89-73.78-14.89s-50.42,5.01-73.78,14.89c-22.57,9.55-42.85,23.22-60.26,40.63-17.41,17.41-31.08,37.69-40.63,60.26-9.88,23.36-14.89,48.18-14.89,73.78s5.01,50.42,14.89,73.78c9.55,22.57,23.22,42.85,40.63,60.26,17.41,17.41,37.69,31.08,60.26,40.63,23.36,9.88,48.18,14.89,73.78,14.89s50.42-5.01,73.78-14.89c22.57-9.55,42.85-23.22,60.26-40.63,17.41-17.41,31.08-37.69,40.63-60.26,9.88-23.36,14.89-48.18,14.89-73.78Zm-189.56,148.07c-81.78,0-148.07-66.29-148.07-148.07S174.22,107.93,256,107.93s148.07,66.29,148.07,148.07-66.29,148.07-148.07,148.07Z"/><path d="M256,0C114.62,0,0,114.62,0,256s114.62,256,256,256,256-114.62,256-256S397.38,0,256,0Zm0,15.61c62.24-.45,124.76,25.44,168.4,68.84l-10.51,10.7c-42.4-41.62-98.47-64.54-157.89-64.54-60.52-.23-119.43,24.71-161.47,68.14l-10.74-10.47C128.48,42.13,191.35,15.37,256,15.61Zm-90.98,462.97c-74.65-30.16-131.04-99-145.37-178.47l14.75-2.74c13.19,74.02,66.56,139.32,136.3,167.32l-5.68,13.88ZM51.44,256c0-112.98,91.59-204.56,204.56-204.56s204.56,91.59,204.56,204.56-91.59,204.56-204.56,204.56S51.44,368.98,51.44,256Zm300.53,220.47l-5.99-13.75c67.2-29.29,116.1-89.52,130.81-161.12l14.69,3.02c-15.25,75.69-68.38,141.12-139.51,171.85Z"/><path class="uuid-f9f6e8f7-c3ae-4866-9241-b8aa91dbc594" d="M460.56,256c0-112.98-91.59-204.56-204.56-204.56S51.44,143.02,51.44,256s91.59,204.56,204.56,204.56,204.56-91.59,204.56-204.56Zm-130.78,174.67c-23.36,9.88-48.18,14.89-73.78,14.89s-50.42-5.01-73.78-14.89c-22.57-9.55-42.85-23.22-60.26-40.63-17.41-17.41-31.08-37.69-40.63-60.26-9.88-23.36-14.89-48.18-14.89-73.78s5.01-50.42,14.89-73.78c9.55-22.57,23.22-42.85,40.63-60.26,17.41-17.41,37.69-31.08,60.26-40.63,23.36-9.88,48.18-14.89,73.78-14.89s50.42,5.01,73.78,14.89c22.57,9.55,42.85,23.22,60.26,40.63,17.41,17.41,31.08,37.69,40.63,60.26,9.88,23.36,14.89,48.18,14.89,73.78s-5.01,50.42-14.89,73.78c-9.55,22.57-23.22,42.85-40.63,60.26-17.41,17.41-37.69,31.08-60.26,40.63Z"/><path class="uuid-eff02059-9060-4e57-b26c-93a47698114d" d="M256,107.93c-81.78,0-148.07,66.29-148.07,148.07s66.29,148.07,148.07,148.07,148.07-66.29,148.07-148.07-66.29-148.07-148.07-148.07Zm-.06,228.4c21.32,0,40.72-8.35,55.12-21.95h44.44c-20.08,34.12-57.19,57.06-99.56,57.06-63.66,0-115.44-51.79-115.44-115.44s51.79-115.44,115.44-115.44c42.37,0,79.47,22.95,99.56,57.06h-44.44c-14.4-13.6-33.8-21.95-55.12-21.95-44.29,0-80.33,36.03-80.33,80.33s36.03,80.33,80.33,80.33Z"/><path class="uuid-a395561c-aea9-4027-b57e-e9208b7a79c7" d="M255.94,175.67c21.32,0,40.72,8.35,55.12,21.95h44.44c-20.08-34.12-57.19-57.06-99.56-57.06-63.66,0-115.44,51.79-115.44,115.44s51.79,115.44,115.44,115.44c42.37,0,79.47-22.95,99.56-57.06h-44.44c-14.4,13.6-33.8,21.95-55.12,21.95-44.29,0-80.33-36.03-80.33-80.33s36.03-80.33,80.33-80.33Z"/><path class="uuid-a395561c-aea9-4027-b57e-e9208b7a79c7" d="M34.4,297.37l-14.75,2.74c14.33,79.47,70.71,148.31,145.37,178.47l5.68-13.88c-69.74-28-123.11-93.3-136.3-167.32Z"/><path class="uuid-a395561c-aea9-4027-b57e-e9208b7a79c7" d="M256,30.61c59.42,0,115.49,22.92,157.89,64.54l10.51-10.7C380.76,41.04,318.24,15.16,256,15.61c-64.65-.24-127.52,26.52-172.21,72.67l10.74,10.47C136.57,55.32,195.48,30.38,256,30.61Z"/><path class="uuid-a395561c-aea9-4027-b57e-e9208b7a79c7" d="M476.78,301.6c-14.71,71.6-63.61,131.83-130.81,161.12l5.99,13.75c71.12-30.74,124.26-96.16,139.51-171.85l-14.69-3.02Z"/></svg>